<mxfile host="app.diagrams.net" modified="2024-07-25T08:57:53.501Z" agent="Mozilla/5.0 (Windows NT 10.0; Win64; x64) AppleWebKit/537.36 (KHTML, like Gecko) Chrome/126.0.0.0 Safari/537.36" etag="NDcww97n6_NdgQMVUutj" version="24.7.1" type="github">
  <diagram name="Page-1" id="4Pck6lCOwFORLC3Ud4sL">
    <mxGraphModel dx="605" dy="1524" grid="0" gridSize="10" guides="1" tooltips="1" connect="1" arrows="1" fold="1" page="0" pageScale="1" pageWidth="827" pageHeight="1169" math="0" shadow="0">
      <root>
        <mxCell id="0" />
        <mxCell id="1" parent="0" />
        <mxCell id="3-gNl-8anpYLbxtLhOA5-7" value="" style="ellipse;whiteSpace=wrap;html=1;fillColor=#99FF33;" vertex="1" parent="1">
          <mxGeometry x="135" y="-659" width="148" height="80" as="geometry" />
        </mxCell>
        <mxCell id="3-gNl-8anpYLbxtLhOA5-9" style="edgeStyle=orthogonalEdgeStyle;rounded=0;orthogonalLoop=1;jettySize=auto;html=1;" edge="1" parent="1" source="3-gNl-8anpYLbxtLhOA5-8" target="3-gNl-8anpYLbxtLhOA5-10">
          <mxGeometry relative="1" as="geometry">
            <mxPoint x="207.5" y="-468" as="targetPoint" />
          </mxGeometry>
        </mxCell>
        <mxCell id="3-gNl-8anpYLbxtLhOA5-8" value="Start" style="text;strokeColor=none;align=center;fillColor=none;html=1;verticalAlign=middle;whiteSpace=wrap;rounded=0;" vertex="1" parent="1">
          <mxGeometry x="161" y="-648" width="93" height="60" as="geometry" />
        </mxCell>
        <mxCell id="3-gNl-8anpYLbxtLhOA5-12" style="edgeStyle=orthogonalEdgeStyle;rounded=0;orthogonalLoop=1;jettySize=auto;html=1;" edge="1" parent="1" source="3-gNl-8anpYLbxtLhOA5-10" target="3-gNl-8anpYLbxtLhOA5-13">
          <mxGeometry relative="1" as="geometry">
            <mxPoint x="207.5" y="-370" as="targetPoint" />
          </mxGeometry>
        </mxCell>
        <mxCell id="3-gNl-8anpYLbxtLhOA5-10" value="" style="rounded=0;whiteSpace=wrap;html=1;fillColor=#FFFF99;" vertex="1" parent="1">
          <mxGeometry x="146.25" y="-498" width="122.5" height="75" as="geometry" />
        </mxCell>
        <mxCell id="3-gNl-8anpYLbxtLhOA5-11" value="Parsing the format string" style="text;strokeColor=none;align=center;fillColor=none;html=1;verticalAlign=middle;whiteSpace=wrap;rounded=0;" vertex="1" parent="1">
          <mxGeometry x="152.5" y="-475.5" width="110" height="30" as="geometry" />
        </mxCell>
        <mxCell id="3-gNl-8anpYLbxtLhOA5-16" style="edgeStyle=orthogonalEdgeStyle;rounded=0;orthogonalLoop=1;jettySize=auto;html=1;exitX=0.5;exitY=1;exitDx=0;exitDy=0;" edge="1" parent="1" source="3-gNl-8anpYLbxtLhOA5-13">
          <mxGeometry relative="1" as="geometry">
            <mxPoint x="208" y="-280" as="targetPoint" />
          </mxGeometry>
        </mxCell>
        <mxCell id="3-gNl-8anpYLbxtLhOA5-13" value="" style="rounded=0;whiteSpace=wrap;html=1;fillColor=#FFFF99;" vertex="1" parent="1">
          <mxGeometry x="147.5" y="-400" width="120" height="60" as="geometry" />
        </mxCell>
        <mxCell id="3-gNl-8anpYLbxtLhOA5-14" value="Traversing the format string" style="text;strokeColor=none;align=center;fillColor=none;html=1;verticalAlign=middle;whiteSpace=wrap;rounded=0;" vertex="1" parent="1">
          <mxGeometry x="157" y="-383" width="102" height="30" as="geometry" />
        </mxCell>
        <mxCell id="3-gNl-8anpYLbxtLhOA5-20" style="edgeStyle=orthogonalEdgeStyle;rounded=0;orthogonalLoop=1;jettySize=auto;html=1;exitX=1;exitY=0.5;exitDx=0;exitDy=0;" edge="1" parent="1" source="3-gNl-8anpYLbxtLhOA5-17">
          <mxGeometry relative="1" as="geometry">
            <mxPoint x="308.3333740234375" y="-186.66668701171875" as="targetPoint" />
          </mxGeometry>
        </mxCell>
        <mxCell id="3-gNl-8anpYLbxtLhOA5-40" style="edgeStyle=orthogonalEdgeStyle;rounded=0;orthogonalLoop=1;jettySize=auto;html=1;" edge="1" parent="1" source="3-gNl-8anpYLbxtLhOA5-17">
          <mxGeometry relative="1" as="geometry">
            <mxPoint x="127.66668701171875" y="116.66668701171875" as="targetPoint" />
          </mxGeometry>
        </mxCell>
        <mxCell id="3-gNl-8anpYLbxtLhOA5-17" value="" style="rounded=0;whiteSpace=wrap;html=1;fillColor=#99FFFF;" vertex="1" parent="1">
          <mxGeometry x="148" y="-277" width="120" height="60" as="geometry" />
        </mxCell>
        <mxCell id="3-gNl-8anpYLbxtLhOA5-19" value="Is it &#39;%&#39; ?" style="text;strokeColor=none;align=center;fillColor=none;html=1;verticalAlign=middle;whiteSpace=wrap;rounded=0;" vertex="1" parent="1">
          <mxGeometry x="157" y="-262" width="99" height="30" as="geometry" />
        </mxCell>
        <mxCell id="3-gNl-8anpYLbxtLhOA5-22" value="Yes" style="text;strokeColor=none;align=center;fillColor=none;html=1;verticalAlign=middle;whiteSpace=wrap;rounded=0;" vertex="1" parent="1">
          <mxGeometry x="315" y="-247" width="60" height="30" as="geometry" />
        </mxCell>
        <mxCell id="3-gNl-8anpYLbxtLhOA5-23" value="No" style="text;strokeColor=none;align=center;fillColor=none;html=1;verticalAlign=middle;whiteSpace=wrap;rounded=0;" vertex="1" parent="1">
          <mxGeometry x="62" y="-247" width="60" height="30" as="geometry" />
        </mxCell>
        <mxCell id="3-gNl-8anpYLbxtLhOA5-25" style="edgeStyle=orthogonalEdgeStyle;rounded=0;orthogonalLoop=1;jettySize=auto;html=1;" edge="1" parent="1" source="3-gNl-8anpYLbxtLhOA5-24" target="3-gNl-8anpYLbxtLhOA5-26">
          <mxGeometry relative="1" as="geometry">
            <mxPoint x="307" y="-80" as="targetPoint" />
          </mxGeometry>
        </mxCell>
        <mxCell id="3-gNl-8anpYLbxtLhOA5-24" value="" style="rounded=0;whiteSpace=wrap;html=1;fillColor=#FFFF66;" vertex="1" parent="1">
          <mxGeometry x="247" y="-182" width="120" height="60" as="geometry" />
        </mxCell>
        <mxCell id="3-gNl-8anpYLbxtLhOA5-37" style="edgeStyle=orthogonalEdgeStyle;rounded=0;orthogonalLoop=1;jettySize=auto;html=1;exitX=0.5;exitY=1;exitDx=0;exitDy=0;" edge="1" parent="1" source="3-gNl-8anpYLbxtLhOA5-26">
          <mxGeometry relative="1" as="geometry">
            <mxPoint x="307" y="28.66668701171875" as="targetPoint" />
          </mxGeometry>
        </mxCell>
        <mxCell id="3-gNl-8anpYLbxtLhOA5-26" value="Retrieve arg&amp;nbsp;" style="rounded=0;whiteSpace=wrap;html=1;fillColor=#FFFF66;" vertex="1" parent="1">
          <mxGeometry x="247" y="-78" width="120" height="57" as="geometry" />
        </mxCell>
        <mxCell id="3-gNl-8anpYLbxtLhOA5-38" style="edgeStyle=orthogonalEdgeStyle;rounded=0;orthogonalLoop=1;jettySize=auto;html=1;" edge="1" parent="1" source="3-gNl-8anpYLbxtLhOA5-28">
          <mxGeometry relative="1" as="geometry">
            <mxPoint x="307" y="118" as="targetPoint" />
          </mxGeometry>
        </mxCell>
        <mxCell id="3-gNl-8anpYLbxtLhOA5-28" value="Convert and format" style="rounded=0;whiteSpace=wrap;html=1;fillColor=#FFFF66;" vertex="1" parent="1">
          <mxGeometry x="247" y="31" width="120" height="60" as="geometry" />
        </mxCell>
        <mxCell id="3-gNl-8anpYLbxtLhOA5-31" value="Parse specifier" style="text;strokeColor=none;align=center;fillColor=none;html=1;verticalAlign=middle;whiteSpace=wrap;rounded=0;" vertex="1" parent="1">
          <mxGeometry x="247" y="-167" width="119" height="30" as="geometry" />
        </mxCell>
        <mxCell id="3-gNl-8anpYLbxtLhOA5-34" value="Text" style="text;strokeColor=none;align=center;fillColor=none;html=1;verticalAlign=middle;whiteSpace=wrap;rounded=0;" vertex="1" parent="1">
          <mxGeometry x="170" y="-199" width="60" height="30" as="geometry" />
        </mxCell>
        <mxCell id="3-gNl-8anpYLbxtLhOA5-43" style="edgeStyle=orthogonalEdgeStyle;rounded=0;orthogonalLoop=1;jettySize=auto;html=1;exitX=0.5;exitY=1;exitDx=0;exitDy=0;" edge="1" parent="1" source="3-gNl-8anpYLbxtLhOA5-41" target="3-gNl-8anpYLbxtLhOA5-44">
          <mxGeometry relative="1" as="geometry">
            <mxPoint x="217" y="229.3333740234375" as="targetPoint" />
          </mxGeometry>
        </mxCell>
        <mxCell id="3-gNl-8anpYLbxtLhOA5-41" value="" style="rounded=0;whiteSpace=wrap;html=1;fillColor=#FFCCCC;" vertex="1" parent="1">
          <mxGeometry x="117" y="125" width="200" height="60" as="geometry" />
        </mxCell>
        <mxCell id="3-gNl-8anpYLbxtLhOA5-42" value="Output character" style="text;strokeColor=none;align=center;fillColor=none;html=1;verticalAlign=middle;whiteSpace=wrap;rounded=0;" vertex="1" parent="1">
          <mxGeometry x="140" y="140" width="152" height="30" as="geometry" />
        </mxCell>
        <mxCell id="3-gNl-8anpYLbxtLhOA5-47" style="edgeStyle=orthogonalEdgeStyle;rounded=0;orthogonalLoop=1;jettySize=auto;html=1;exitX=0;exitY=0.5;exitDx=0;exitDy=0;" edge="1" parent="1" source="3-gNl-8anpYLbxtLhOA5-44">
          <mxGeometry relative="1" as="geometry">
            <mxPoint x="130" y="429" as="targetPoint" />
          </mxGeometry>
        </mxCell>
        <mxCell id="3-gNl-8anpYLbxtLhOA5-48" style="edgeStyle=orthogonalEdgeStyle;rounded=0;orthogonalLoop=1;jettySize=auto;html=1;exitX=0.5;exitY=1;exitDx=0;exitDy=0;" edge="1" parent="1" source="3-gNl-8anpYLbxtLhOA5-44">
          <mxGeometry relative="1" as="geometry">
            <mxPoint x="217" y="326" as="targetPoint" />
          </mxGeometry>
        </mxCell>
        <mxCell id="3-gNl-8anpYLbxtLhOA5-44" value="" style="rounded=0;whiteSpace=wrap;html=1;fillColor=#99FFFF;" vertex="1" parent="1">
          <mxGeometry x="157" y="238" width="120" height="37" as="geometry" />
        </mxCell>
        <mxCell id="3-gNl-8anpYLbxtLhOA5-45" value="End of string ?" style="text;strokeColor=none;align=center;fillColor=none;html=1;verticalAlign=middle;whiteSpace=wrap;rounded=0;" vertex="1" parent="1">
          <mxGeometry x="172.5" y="238" width="89" height="30" as="geometry" />
        </mxCell>
        <mxCell id="3-gNl-8anpYLbxtLhOA5-57" style="edgeStyle=orthogonalEdgeStyle;rounded=0;orthogonalLoop=1;jettySize=auto;html=1;exitX=0.5;exitY=1;exitDx=0;exitDy=0;" edge="1" parent="1" source="3-gNl-8anpYLbxtLhOA5-49">
          <mxGeometry relative="1" as="geometry">
            <mxPoint x="219" y="429" as="targetPoint" />
          </mxGeometry>
        </mxCell>
        <mxCell id="3-gNl-8anpYLbxtLhOA5-49" value="" style="rounded=0;whiteSpace=wrap;html=1;fillColor=#FFFF66;" vertex="1" parent="1">
          <mxGeometry x="159" y="326" width="120" height="50" as="geometry" />
        </mxCell>
        <mxCell id="3-gNl-8anpYLbxtLhOA5-50" value="Return char count" style="text;strokeColor=none;align=center;fillColor=none;html=1;verticalAlign=middle;whiteSpace=wrap;rounded=0;" vertex="1" parent="1">
          <mxGeometry x="170" y="337" width="94" height="27.5" as="geometry" />
        </mxCell>
        <mxCell id="3-gNl-8anpYLbxtLhOA5-54" style="edgeStyle=orthogonalEdgeStyle;rounded=0;orthogonalLoop=1;jettySize=auto;html=1;exitX=0.5;exitY=1;exitDx=0;exitDy=0;" edge="1" parent="1" source="3-gNl-8anpYLbxtLhOA5-49" target="3-gNl-8anpYLbxtLhOA5-49">
          <mxGeometry relative="1" as="geometry" />
        </mxCell>
        <mxCell id="3-gNl-8anpYLbxtLhOA5-55" value="yes" style="text;strokeColor=none;align=center;fillColor=none;html=1;verticalAlign=middle;whiteSpace=wrap;rounded=0;" vertex="1" parent="1">
          <mxGeometry x="225" y="285" width="60" height="30" as="geometry" />
        </mxCell>
        <mxCell id="3-gNl-8anpYLbxtLhOA5-56" value="No" style="text;strokeColor=none;align=center;fillColor=none;html=1;verticalAlign=middle;whiteSpace=wrap;rounded=0;" vertex="1" parent="1">
          <mxGeometry x="69" y="255" width="60" height="30" as="geometry" />
        </mxCell>
        <mxCell id="3-gNl-8anpYLbxtLhOA5-60" value="" style="ellipse;whiteSpace=wrap;html=1;fillColor=#FF3333;" vertex="1" parent="1">
          <mxGeometry x="117" y="424" width="120" height="80" as="geometry" />
        </mxCell>
        <mxCell id="3-gNl-8anpYLbxtLhOA5-61" value="END" style="text;strokeColor=none;align=center;fillColor=none;html=1;verticalAlign=middle;whiteSpace=wrap;rounded=0;" vertex="1" parent="1">
          <mxGeometry x="147" y="445" width="60" height="30" as="geometry" />
        </mxCell>
      </root>
    </mxGraphModel>
  </diagram>
</mxfile>
